<svg width="21" height="20" viewBox="0 0 21 20" fill="none" xmlns="http://www.w3.org/2000/svg">
<g clip-path="url(#clip0_146_6360)">
<path d="M18.7966 13.1958C17.7195 13.6904 16.5142 13.9658 15.2348 13.9658C10.4197 13.9658 6.37928 10.0648 6.21032 5.25259C6.16543 3.97405 6.39834 2.75984 6.85491 1.66602C3.8779 3.0332 1.87992 6.07555 2.00399 9.6092C2.17295 14.4214 6.21337 18.3224 11.0285 18.3224C14.5643 18.3224 17.5347 16.2189 18.7966 13.1958Z" stroke="white" stroke-opacity="0.73" stroke-width="2" stroke-linecap="round" stroke-linejoin="round"/>
</g>
<defs>
<clipPath id="clip0_146_6360">
<path d="M0.350833 9.99433C0.15704 4.47488 4.47709 0.000488281 9.99994 0.000488281L19.9999 0.000488281L20.7017 19.9882H10.7017C5.17888 19.9882 0.544627 15.5138 0.350833 9.99433V9.99433Z" fill="white"/>
</clipPath>
</defs>
</svg>
