<svg width="17" height="16" viewBox="0 0 17 16" fill="none" xmlns="http://www.w3.org/2000/svg">
<g clip-path="url(#clip0_146_6360)">
<path d="M15.0373 10.5568C14.1756 10.9525 13.2113 11.1728 12.1879 11.1728C8.33575 11.1728 5.10341 8.05201 4.96825 4.20226C4.93233 3.17944 5.11866 2.20807 5.48391 1.33301C3.10231 2.42675 1.50392 4.86063 1.60318 7.68755C1.73835 11.5373 4.97068 14.6581 8.8228 14.6581C11.6515 14.6581 14.0278 12.9753 15.0373 10.5568Z" stroke="#252422" stroke-opacity="0.73" stroke-width="2" stroke-linecap="round" stroke-linejoin="round"/>
</g>
<defs>
<clipPath id="clip0_146_6360">
<path d="M0.280654 7.99556C0.12562 3.58 3.58166 0.000488281 7.99994 0.000488281L15.9999 0.000488281L16.5614 15.9906H8.56137C4.14309 15.9906 0.435689 12.4111 0.280654 7.99556V7.99556Z" fill="white"/>
</clipPath>
</defs>
</svg>
